<?xml version="1.0" standalone="no"?>
<!DOCTYPE svg PUBLIC "-//W3C//DTD SVG 20010904//EN"
 "http://www.w3.org/TR/2001/REC-SVG-20010904/DTD/svg10.dtd">
<svg version="1.0" xmlns="http://www.w3.org/2000/svg"
 width="203.000000pt" height="196.000000pt" viewBox="0 0 203.000000 196.000000"
 preserveAspectRatio="xMidYMid meet">
<metadata>
Created by potrace 1.16, written by Peter Selinger 2001-2019
</metadata>
<g transform="translate(0.000000,196.000000) scale(0.100000,-0.100000)"
fill="#000000" stroke="none">
<path d="M0 980 l0 -980 1015 0 1015 0 0 299 0 299 -34 12 c-31 10 -34 15 -40
61 -15 115 -51 140 -44 30 l4 -68 -26 8 -25 9 0 155 0 155 53 0 c61 0 87 -20
97 -74 5 -26 1 -47 -14 -80 -21 -43 -22 -46 -6 -108 9 -35 21 -70 26 -78 5 -9
9 269 9 663 l0 677 -1015 0 -1015 0 0 -980z m1176 921 c192 -39 323 -110 459
-247 139 -141 216 -290 258 -499 l22 -110 38 -3 c25 -2 37 1 37 10 0 8 5 7 17
-5 9 -9 15 -19 12 -21 -3 -3 -129 -6 -281 -6 -260 -1 -277 -2 -294 -21 -9 -10
-24 -19 -33 -19 -12 0 -12 3 -3 12 7 7 12 16 12 20 0 4 -73 8 -162 8 l-163 0
90 59 c163 107 191 139 227 256 l18 60 -6 -50 c-6 -49 -33 -115 -61 -147 -11
-12 -11 -18 -2 -24 7 -4 10 -3 5 4 -12 19 36 42 89 42 l50 -1 -30 -24 c-35
-29 -91 -42 -115 -28 -12 8 -24 5 -49 -16 l-32 -26 35 1 c41 2 57 -12 54 -48
-2 -19 -7 -24 -20 -20 -17 4 -27 23 -10 21 19 -3 23 2 12 16 -14 17 -67 20
-90 5 -12 -8 -9 -10 11 -10 18 0 28 -6 32 -19 3 -14 1 -18 -9 -14 -8 3 -14 9
-14 13 0 19 -52 16 -87 -6 l-38 -23 256 -1 c283 0 323 6 313 46 -7 27 7 32 25
10 9 -11 9 -20 2 -34 -9 -18 -7 -20 22 -24 32 -3 33 -3 31 32 -1 19 -16 88
-33 153 -33 125 -37 152 -22 142 5 -3 13 -1 16 5 4 6 3 10 -2 9 -20 -3 -34 2
-28 11 4 6 12 7 18 4 7 -4 8 -3 4 2 -5 5 -12 9 -15 9 -13 0 -32 16 -32 27 0 6
7 5 18 -3 9 -8 0 6 -21 29 -21 24 -36 50 -33 57 2 7 -1 18 -8 24 -10 9 -15 6
-19 -10 -3 -11 -3 -19 0 -16 6 7 73 -116 73 -135 0 -7 -15 10 -33 38 -17 28
-42 66 -54 84 -24 37 -57 156 -47 172 5 7 2 8 -6 3 -10 -6 -12 -4 -7 8 3 9 3
16 -2 14 -5 -1 -18 9 -31 23 -20 22 -19 20 4 -22 l26 -47 -29 12 c-16 7 -47
35 -69 63 -22 28 -56 61 -74 72 -82 51 -325 110 -342 84 -3 -6 -1 -14 5 -18 8
-5 9 -3 4 6 -6 9 4 11 46 5 120 -15 296 -76 282 -98 -3 -5 -2 -8 3 -5 12 7 48
-28 37 -35 -5 -3 -39 9 -76 27 -103 50 -202 71 -342 71 -132 0 -212 -16 -323
-66 -35 -16 -65 -29 -66 -29 -1 0 -2 9 -2 20 0 20 10 27 19 13 2 -5 2 -2 0 6
-2 8 2 11 12 7 8 -3 14 -1 12 5 -2 12 71 44 145 64 28 8 72 11 108 8 51 -5 60
-3 60 11 0 12 -9 16 -34 16 -50 0 -216 -45 -272 -73 -52 -27 -132 -102 -121
-113 4 -4 9 1 13 10 3 9 13 16 21 16 8 0 11 5 8 10 -3 6 -2 10 4 10 36 0 -5
-48 -46 -54 -9 -2 -19 -10 -25 -19 -5 -9 -14 -17 -19 -17 -6 0 -7 6 -3 13 4 6
-3 3 -15 -7 -22 -20 -22 -20 -15 0 4 10 15 27 26 37 10 10 18 23 18 30 0 7
-11 0 -24 -15 -13 -15 -26 -25 -28 -23 -2 2 -4 -4 -5 -13 -6 -80 -76 -242
-105 -242 -5 0 -7 -4 -4 -8 3 -5 -4 -21 -15 -38 -10 -16 -19 -24 -19 -17 0 6
5 15 10 18 6 4 8 11 5 16 -4 5 -1 9 6 9 7 0 9 3 6 6 -8 8 24 64 36 64 4 0 6 4
3 9 -9 14 23 130 46 173 21 38 75 84 86 74 3 -4 19 6 36 21 30 27 30 27 11 2
-13 -16 -9 -14 10 6 66 68 274 137 436 143 37 2 108 -6 165 -17z m12 -201 c88
-55 170 -100 182 -100 19 0 20 -3 10 -15 -6 -8 -9 -18 -6 -23 11 -18 85 -64
94 -58 14 9 35 -50 28 -78 -3 -14 -17 -37 -30 -52 l-23 -28 2 47 c1 28 -2 44
-8 40 -6 -3 -7 -1 -3 6 4 6 11 9 16 6 10 -6 33 21 28 36 -2 6 -18 -3 -37 -20
-42 -39 -68 -54 -82 -45 -6 3 -23 1 -38 -6 -25 -10 -31 -8 -61 20 l-33 31 35
37 c20 20 33 43 31 50 -3 6 0 12 7 12 6 0 8 -4 5 -10 -14 -23 14 -8 29 15 16
25 16 25 -1 14 -16 -9 -41 3 -166 80 -116 73 -150 90 -164 82 -10 -5 -88 -52
-173 -105 -128 -79 -156 -93 -163 -80 -11 19 -24 8 113 94 63 39 118 76 121
82 3 5 10 9 15 9 5 -1 17 6 27 14 9 8 20 15 23 15 3 0 12 7 20 15 9 8 21 15
28 15 8 0 86 -45 174 -100z m-538 -181 c0 -22 -7 -54 -16 -71 -18 -35 -15
-130 5 -165 8 -15 11 -10 11 27 0 25 7 56 15 70 14 24 14 23 14 -25 0 -37 -3
-45 -9 -30 -8 17 -9 15 -8 -10 0 -16 -2 -37 -6 -45 -14 -33 82 -125 215 -206
33 -19 59 -37 59 -39 0 -2 -205 -3 -455 -4 -250 0 -455 3 -455 8 0 5 7 15 16
22 13 11 17 10 25 -4 6 -10 22 -17 39 -17 31 0 33 5 45 113 4 31 11 55 16 52
5 -3 6 1 3 9 -3 8 2 39 12 68 27 78 30 29 5 -70 -12 -44 -21 -99 -21 -121 0
-37 2 -41 25 -41 25 0 25 1 39 98 2 13 -1 59 -6 102 -8 64 -7 87 6 134 9 31
21 54 26 51 6 -4 10 -11 10 -16 0 -6 -4 -8 -9 -5 -19 12 -25 -184 -6 -202 4
-4 5 22 1 58 -7 74 1 112 41 178 15 26 27 50 26 53 -1 3 14 21 32 39 19 19 35
29 35 23 0 -7 -5 -15 -10 -18 -6 -4 -8 -10 -5 -15 2 -4 -5 -19 -16 -34 -11
-14 -18 -26 -14 -26 3 0 -2 -14 -11 -31 -19 -38 -26 -66 -25 -101 1 -15 -3
-29 -9 -33 -6 -3 -8 16 -7 50 2 38 0 50 -6 39 -5 -9 -7 -44 -4 -78 3 -43 2
-54 -4 -37 -5 13 -12 22 -14 19 -3 -3 -1 -17 4 -31 11 -28 -7 -140 -20 -131
-5 3 -1 -74 5 -83 0 0 18 -4 40 -8 l39 -8 -22 22 c-11 11 -21 25 -21 30 0 15
29 33 41 25 9 -5 7 -11 -6 -20 -17 -13 -15 -15 18 -29 31 -13 81 -15 290 -13
l252 3 -36 23 c-30 18 -42 20 -64 12 -16 -6 -23 -14 -19 -22 4 -7 3 -8 -4 -4
-23 14 -13 36 16 36 23 1 25 2 9 11 -23 13 -89 7 -95 -8 -2 -7 4 -13 14 -13
13 0 15 -3 7 -11 -15 -15 -33 -3 -33 21 0 25 35 43 68 35 24 -6 22 -3 -13 25
-48 38 -92 100 -104 149 -5 20 -12 72 -16 117 -5 66 -3 88 11 117 21 44 34 39
34 -14z m104 -161 c-1 -58 -5 -112 -9 -120 -6 -10 -5 -10 4 -2 10 9 21 3 46
-25 18 -20 76 -62 128 -94 l95 -58 48 31 c54 34 73 38 53 13 -11 -15 -9 -14 9
1 12 11 20 21 17 24 -2 3 16 18 40 34 59 39 93 81 101 124 3 19 9 33 11 30 3
-3 14 5 24 17 18 22 18 22 19 -33 0 -60 -17 -105 -40 -105 -8 0 -15 -5 -15
-12 0 -20 -39 -49 -60 -45 -13 2 -16 0 -8 -5 9 -6 -3 -19 -37 -41 -52 -34 -66
-39 -54 -20 4 7 3 8 -5 4 -6 -4 -9 -11 -6 -16 5 -7 -47 -34 -60 -30 -4 1 -13
-7 -20 -16 -12 -17 -16 -16 -63 15 -28 18 -50 36 -49 39 1 4 -1 7 -4 7 -3 0
-14 7 -25 15 -18 14 -18 14 -5 -2 7 -10 18 -15 24 -11 6 3 7 1 3 -5 -8 -13
-21 -6 -121 64 -71 50 -100 93 -91 135 3 17 2 28 -2 25 -4 -2 -8 48 -10 111
-3 104 -1 117 16 134 11 10 23 15 26 12 3 -4 7 0 8 8 4 39 13 -109 12 -203z
m517 45 c9 -7 29 -12 45 -11 50 5 41 -15 -26 -59 -36 -22 -72 -47 -81 -55 -9
-7 -22 -14 -30 -16 -8 -2 -19 -10 -25 -17 -6 -8 -14 -12 -17 -8 -4 3 -9 -2
-13 -11 -3 -9 -10 -13 -15 -10 -5 3 -9 0 -9 -5 0 -6 -6 -11 -14 -11 -8 0 -16
-3 -18 -7 -1 -5 -23 -21 -46 -36 -42 -27 -44 -28 -57 -10 -16 22 -17 20 139
180 117 119 117 120 167 76z m-240 -44 c15 -8 24 -7 37 3 13 11 15 11 9 -4 -4
-12 -2 -18 8 -18 11 0 9 -6 -7 -25 -21 -24 -24 -25 -165 -25 -94 0 -142 4
-138 10 3 6 23 10 44 10 26 0 52 10 82 30 46 31 95 38 130 19z m250 -406 c37
-22 53 -62 47 -123 -7 -71 -28 -90 -97 -90 l-56 0 0 110 0 109 30 4 c17 2 34
5 38 5 5 1 22 -6 38 -15z m343 11 c9 -3 16 -17 16 -30 0 -22 -2 -23 -20 -12
-30 19 -53 -1 -64 -53 -18 -93 27 -165 76 -122 21 18 21 18 15 -7 -4 -14 -7
-28 -7 -32 0 -12 -59 -9 -82 3 -42 23 -62 127 -37 199 8 21 23 37 43 46 36 16
39 16 60 8z m157 -4 c53 -29 73 -182 33 -251 -34 -58 -97 -50 -128 15 -20 43
-21 145 -1 191 19 46 59 64 96 45z m-951 -20 c25 -25 25 -50 1 -81 -18 -24
-18 -25 4 -71 l22 -46 -28 -4 c-24 -4 -28 -1 -33 27 -6 32 -32 75 -45 75 -4 0
-4 -25 -1 -55 6 -54 6 -55 -19 -55 l-26 0 0 115 0 115 53 0 c39 0 57 -5 72
-20z m196 -90 l31 -110 -29 0 c-24 0 -28 4 -28 30 0 29 -1 30 -51 30 -43 0
-50 2 -45 17 4 9 14 45 22 80 15 58 19 63 43 63 26 0 29 -5 57 -110z m454 92
c0 -15 -6 -17 -35 -14 -33 4 -35 3 -35 -27 0 -26 4 -31 25 -31 19 0 25 -5 25
-21 0 -17 -5 -20 -26 -16 -24 4 -25 3 -22 -37 2 -34 7 -42 26 -44 13 -2 30 2
38 8 12 10 14 7 14 -18 0 -23 -4 -29 -17 -27 -10 2 -38 7 -63 10 l-45 5 0 115
0 115 58 0 c48 0 57 -3 57 -18z m-781 -308 c24 -20 31 -34 31 -62 -1 -63 -38
-92 -119 -92 l-50 0 -3 90 -3 90 57 0 c46 0 62 -5 87 -26z m201 11 c0 -11 -12
-15 -45 -15 -38 0 -45 -3 -45 -20 0 -17 7 -20 40 -20 29 0 40 -4 40 -15 0 -11
-11 -15 -40 -15 -36 0 -40 -2 -40 -25 0 -23 4 -25 45 -25 33 0 45 -4 45 -15 0
-12 -14 -15 -64 -15 l-65 0 -3 90 -3 90 68 0 c53 0 67 -3 67 -15z m377 -9 c39
-33 38 -99 -1 -133 -38 -32 -98 -31 -131 2 -35 34 -35 96 0 130 33 34 93 34
132 1z m191 8 c26 -18 29 -60 6 -85 -14 -16 -14 -20 1 -48 15 -30 15 -31 -4
-31 -11 0 -29 14 -41 30 -12 17 -28 30 -36 30 -9 0 -14 -11 -14 -30 0 -23 -4
-30 -20 -30 -19 0 -20 7 -20 90 l0 90 53 0 c31 0 61 -6 75 -16z m-983 -3 c-6
-4 -44 -13 -85 -20 -90 -14 -170 -33 -170 -40 0 -8 57 -103 72 -121 19 -23 69
-60 81 -60 6 0 3 8 -7 19 -10 11 -14 25 -10 36 5 11 3 16 -2 12 -5 -3 -11 5
-12 19 -3 34 3 30 34 -21 21 -37 24 -48 14 -60 -7 -8 -9 -15 -5 -15 5 0 6 -2
3 -5 -2 -3 -23 4 -45 15 -47 22 -94 73 -124 133 -12 23 -23 43 -24 45 -2 2
-36 -6 -76 -18 -50 -15 -68 -24 -58 -30 24 -16 2 -22 -26 -7 l-27 14 28 11
c47 18 203 60 289 76 44 8 89 17 100 19 37 8 59 7 50 -2z m1176 -6 c100 -19
297 -70 334 -87 25 -11 26 -13 9 -25 -25 -18 -41 -16 -46 5 -4 12 -24 24 -63
35 -33 9 -59 16 -59 14 -1 -1 -11 -23 -24 -48 -29 -57 -95 -123 -144 -144 -52
-21 -48 -5 6 23 43 23 86 73 120 140 10 19 16 35 14 37 -5 6 -204 45 -226 45
-12 0 -24 5 -27 10 -8 14 8 13 106 -5z m-1126 -340 c28 -9 66 -27 85 -39 19
-11 38 -20 42 -18 5 1 7 -3 5 -9 -1 -6 7 -13 18 -14 11 -2 45 -12 75 -23 114
-42 212 -55 324 -43 56 5 130 19 164 30 66 20 75 14 18 -13 -41 -19 -164 -46
-214 -46 -20 0 -32 -4 -26 -8 6 -4 14 -15 17 -26 6 -16 14 -17 60 -12 28 3 58
2 65 -3 17 -11 -54 -19 -168 -20 -66 0 -80 2 -61 10 14 5 30 8 37 5 13 -5 24
14 24 40 0 9 -11 14 -35 14 -19 0 -35 4 -35 9 0 6 -9 8 -20 6 -12 -2 -31 0
-43 4 -13 5 -37 3 -59 -5 -21 -7 -38 -9 -38 -4 0 5 -7 7 -15 4 -9 -4 -15 0
-15 10 0 13 5 14 26 6 17 -7 31 -7 42 0 14 9 13 10 -7 4 -14 -3 -21 -2 -18 3
3 5 -4 9 -16 9 -13 -1 -21 4 -19 12 1 8 -2 10 -8 7 -6 -4 -20 1 -31 11 -10 9
-22 15 -24 12 -3 -3 9 -15 27 -27 18 -11 27 -21 20 -21 -7 0 -10 -4 -7 -10 3
-5 1 -10 -4 -10 -6 0 -11 5 -11 10 0 6 -6 10 -14 10 -8 0 -23 15 -35 33 -11
17 -21 28 -21 24 0 -5 -13 2 -30 16 -16 14 -51 33 -77 43 -54 20 -73 32 -73
46 0 7 4 7 13 1 6 -5 35 -18 62 -28z"/>
</g>
</svg>
